<svg xmlns="http://www.w3.org/2000/svg" xmlns:xlink="http://www.w3.org/1999/xlink" width="500" zoomAndPan="magnify" viewBox="0 0 375 374.999991" height="500" preserveAspectRatio="xMidYMid meet" version="1.0"><defs><clipPath id="id1"><path d="M 254.527344 99.15625 L 280.042969 99.15625 L 280.042969 126 L 254.527344 126 Z M 254.527344 99.15625 " clip-rule="nonzero"/></clipPath><clipPath id="id2"><path d="M 149 64.53125 L 259 64.53125 L 259 237 L 149 237 Z M 149 64.53125 " clip-rule="nonzero"/></clipPath><clipPath id="id3"><path d="M 94.8125 237.46875 L 179.925781 237.46875 L 179.925781 310.472656 L 94.8125 310.472656 Z M 94.8125 237.46875 " clip-rule="nonzero"/></clipPath></defs><rect x="-37.5" width="450" fill="#ffffff" y="-37.499999" height="449.999989" fill-opacity="1"/><rect x="-37.5" width="450" fill="#cb6ce6" y="-37.499999" height="449.999989" fill-opacity="1"/><rect x="-37.5" width="450" fill="#ffffff" y="-37.499999" height="449.999989" fill-opacity="1"/><rect x="-37.5" width="450" fill="#cb6ce6" y="-37.499999" height="449.999989" fill-opacity="1"/><g clip-path="url(#id1)"><path fill="#000000" d="M 271.875 125.84375 C 270.652344 125.84375 269.445312 125.28125 268.664062 124.222656 C 267.355469 122.449219 267.730469 119.949219 269.5 118.640625 C 270.910156 117.597656 271.804688 116.105469 272.015625 114.445312 C 272.222656 112.832031 271.753906 111.230469 270.699219 109.925781 C 268.382812 107.074219 264.050781 106.558594 261.039062 108.785156 C 259.269531 110.09375 256.773438 109.71875 255.464844 107.945312 C 254.15625 106.171875 254.53125 103.671875 256.300781 102.363281 C 262.691406 97.640625 271.929688 98.773438 276.890625 104.894531 C 279.332031 107.90625 280.410156 111.65625 279.929688 115.453125 C 279.441406 119.296875 277.421875 122.710938 274.238281 125.0625 C 273.527344 125.589844 272.695312 125.84375 271.875 125.84375 " fill-opacity="1" fill-rule="nonzero"/></g><path fill="#000000" d="M 254.671875 112.523438 C 253.449219 112.523438 252.242188 111.964844 251.460938 110.90625 C 250.152344 109.132812 250.527344 106.632812 252.296875 105.324219 L 256.300781 102.359375 C 258.070312 101.050781 260.570312 101.425781 261.878906 103.199219 C 263.1875 104.972656 262.8125 107.472656 261.039062 108.78125 L 257.039062 111.742188 C 256.324219 112.273438 255.496094 112.523438 254.671875 112.523438 " fill-opacity="1" fill-rule="nonzero"/><path fill="#000000" d="M 254.671875 138.5625 C 253.449219 138.5625 252.242188 138 251.460938 136.941406 C 250.152344 135.167969 250.527344 132.667969 252.296875 131.359375 L 269.5 118.640625 C 271.273438 117.332031 273.769531 117.707031 275.078125 119.480469 C 276.386719 121.25 276.011719 123.75 274.238281 125.0625 L 257.039062 137.777344 C 256.324219 138.308594 255.496094 138.5625 254.671875 138.5625 " fill-opacity="1" fill-rule="nonzero"/><g clip-path="url(#id2)"><path fill="#000000" d="M 242.339844 236.65625 L 167.421875 236.65625 C 166.285156 236.65625 165.203125 236.171875 164.449219 235.324219 C 163.691406 234.476562 163.332031 233.347656 163.457031 232.214844 C 165.757812 211.914062 153.851562 193.324219 153.730469 193.140625 C 153.183594 192.300781 152.976562 191.28125 153.140625 190.292969 C 153.175781 190.082031 156.703125 169.105469 157.878906 152.660156 C 157.507812 146.503906 155.207031 141.839844 151.039062 138.792969 C 150.011719 138.042969 149.402344 136.84375 149.402344 135.570312 L 149.402344 80.910156 C 149.402344 71.90625 156.71875 64.578125 165.71875 64.578125 L 242.339844 64.578125 C 251.339844 64.578125 258.65625 71.90625 258.65625 80.910156 L 258.65625 147.640625 C 258.65625 149.84375 256.871094 151.628906 254.667969 151.628906 C 252.464844 151.628906 250.679688 149.84375 250.679688 147.640625 L 250.679688 80.910156 C 250.679688 76.304688 246.941406 72.5625 242.339844 72.5625 L 165.71875 72.5625 C 161.117188 72.5625 157.378906 76.304688 157.378906 80.910156 L 157.378906 133.65625 C 161.273438 137.066406 165.359375 142.894531 165.855469 152.484375 C 165.867188 152.644531 165.863281 152.808594 165.851562 152.96875 C 164.835938 167.484375 162.09375 184.980469 161.25 190.148438 C 163.976562 194.792969 172.273438 210.5 171.703125 228.671875 L 242.339844 228.671875 C 246.941406 228.671875 250.679688 224.929688 250.679688 220.328125 L 250.679688 213.285156 C 250.679688 211.082031 252.464844 209.292969 254.667969 209.292969 C 256.871094 209.292969 258.65625 211.082031 258.65625 213.285156 L 258.65625 220.328125 C 258.65625 229.332031 251.339844 236.65625 242.339844 236.65625 " fill-opacity="1" fill-rule="nonzero"/></g><path fill="#000000" d="M 171.007812 286.078125 C 170.226562 286.078125 169.441406 285.847656 168.75 285.375 C 166.933594 284.125 166.476562 281.636719 167.726562 279.820312 L 174.191406 270.414062 C 174.664062 269.730469 175.332031 269.214844 176.113281 268.929688 C 176.460938 268.800781 211.632812 255.679688 223.046875 232.183594 C 224.011719 230.199219 226.398438 229.375 228.378906 230.339844 C 230.359375 231.300781 231.1875 233.691406 230.222656 235.675781 C 218.527344 259.746094 186.792969 273.308594 180.058594 275.964844 L 174.296875 284.347656 C 173.523438 285.472656 172.273438 286.078125 171.007812 286.078125 " fill-opacity="1" fill-rule="nonzero"/><path fill="#000000" d="M 119.980469 248.109375 C 119.132812 248.109375 118.28125 247.839844 117.554688 247.285156 C 115.808594 245.945312 115.476562 243.441406 116.816406 241.691406 L 121.863281 235.101562 C 122.003906 225.152344 122.816406 190.058594 127.34375 181.273438 C 132.101562 172.011719 138.074219 156.808594 139.503906 137 C 139.703125 134.226562 141.289062 131.726562 143.742188 130.316406 C 146.285156 128.859375 149.367188 128.769531 151.992188 130.066406 C 153.308594 130.71875 154.574219 131.488281 155.75 132.351562 C 160.042969 135.488281 165.289062 141.535156 165.855469 152.484375 C 165.867188 152.644531 165.863281 152.808594 165.851562 152.96875 C 164.835938 167.484375 162.09375 184.976562 161.25 190.148438 C 164.195312 195.167969 173.648438 213.105469 171.382812 233.117188 C 171.078125 235.839844 170.550781 238.546875 169.816406 241.160156 C 169.222656 243.285156 167.019531 244.523438 164.898438 243.925781 C 162.777344 243.332031 161.542969 241.125 162.136719 239.003906 C 162.753906 236.804688 163.199219 234.523438 163.457031 232.21875 C 165.757812 211.914062 153.851562 193.324219 153.730469 193.140625 C 153.183594 192.300781 152.976562 191.28125 153.140625 190.292969 C 153.175781 190.082031 156.703125 169.105469 157.878906 152.660156 C 157.507812 146.503906 155.207031 141.839844 151.039062 138.792969 C 150.230469 138.199219 149.363281 137.671875 148.457031 137.226562 C 148.109375 137.054688 147.820312 137.183594 147.710938 137.246094 C 147.476562 137.378906 147.464844 137.523438 147.464844 137.570312 C 145.933594 158.730469 139.535156 175.003906 134.4375 184.925781 C 131.421875 190.78125 130.007812 219.675781 129.824219 236.519531 C 129.8125 237.382812 129.527344 238.21875 129 238.90625 L 123.148438 246.546875 C 122.363281 247.574219 121.179688 248.109375 119.980469 248.109375 " fill-opacity="1" fill-rule="nonzero"/><path fill="#000000" d="M 258.011719 194.949219 C 257.425781 194.949219 256.832031 195.078125 256.273438 195.351562 L 251.113281 197.871094 C 249.761719 198.527344 248.75 199.671875 248.261719 201.09375 C 247.769531 202.515625 247.863281 204.042969 248.523438 205.390625 L 248.894531 206.160156 C 250.25 208.945312 253.621094 210.109375 256.410156 208.75 L 260.917969 206.550781 C 262.050781 205.996094 262.898438 205.035156 263.308594 203.847656 C 263.71875 202.65625 263.640625 201.375 263.089844 200.242188 L 261.605469 197.1875 C 260.914062 195.773438 259.492188 194.949219 258.011719 194.949219 Z M 253.96875 217.300781 C 248.929688 217.300781 244.078125 214.484375 241.722656 209.65625 L 241.351562 208.890625 C 239.761719 205.621094 239.535156 201.929688 240.71875 198.492188 C 241.902344 195.054688 244.351562 192.285156 247.617188 190.691406 L 252.777344 188.175781 C 258.707031 185.28125 265.886719 187.757812 268.773438 193.691406 L 270.261719 196.746094 C 271.746094 199.792969 271.957031 203.238281 270.851562 206.449219 C 269.746094 209.65625 267.460938 212.242188 264.414062 213.726562 L 259.90625 215.925781 C 257.992188 216.859375 255.964844 217.300781 253.96875 217.300781 " fill-opacity="1" fill-rule="nonzero"/><path fill="#000000" d="M 258.011719 172.917969 C 257.425781 172.917969 256.832031 173.046875 256.273438 173.324219 L 251.113281 175.839844 C 249.761719 176.5 248.75 177.644531 248.261719 179.0625 C 247.769531 180.484375 247.863281 182.011719 248.523438 183.363281 L 248.894531 184.128906 C 249.550781 185.480469 250.695312 186.492188 252.113281 186.980469 C 253.535156 187.472656 255.058594 187.378906 256.410156 186.71875 L 260.917969 184.523438 C 263.253906 183.378906 264.230469 180.550781 263.089844 178.210938 L 261.605469 175.160156 C 260.914062 173.746094 259.492188 172.917969 258.011719 172.917969 Z M 253.957031 195.28125 C 252.464844 195.28125 250.96875 195.03125 249.515625 194.53125 C 246.082031 193.347656 243.3125 190.894531 241.722656 187.625 L 241.351562 186.859375 C 239.761719 183.59375 239.535156 179.898438 240.71875 176.464844 C 241.902344 173.027344 244.351562 170.257812 247.617188 168.664062 L 252.777344 166.144531 C 258.707031 163.253906 265.886719 165.726562 268.773438 171.664062 L 270.261719 174.714844 C 273.328125 181.011719 270.703125 188.628906 264.414062 191.699219 L 259.90625 193.898438 C 258.019531 194.816406 255.996094 195.28125 253.957031 195.28125 " fill-opacity="1" fill-rule="nonzero"/><path fill="#000000" d="M 258.015625 150.886719 C 257.417969 150.886719 256.824219 151.023438 256.273438 151.292969 L 251.113281 153.808594 C 249.761719 154.46875 248.75 155.613281 248.261719 157.035156 C 247.769531 158.457031 247.863281 159.984375 248.523438 161.335938 L 248.894531 162.097656 C 249.550781 163.449219 250.695312 164.460938 252.113281 164.953125 C 253.535156 165.441406 255.058594 165.347656 256.410156 164.691406 L 260.917969 162.492188 C 263.253906 161.351562 264.230469 158.523438 263.089844 156.183594 L 261.605469 153.132812 C 261.136719 152.175781 260.328125 151.453125 259.320312 151.109375 C 258.894531 150.960938 258.453125 150.886719 258.015625 150.886719 Z M 253.957031 173.25 C 252.464844 173.25 250.96875 173 249.515625 172.5 C 246.082031 171.316406 243.3125 168.863281 241.722656 165.597656 L 241.351562 164.832031 C 239.761719 161.5625 239.535156 157.871094 240.71875 154.433594 C 241.902344 150.996094 244.351562 148.226562 247.617188 146.632812 L 252.777344 144.117188 C 255.652344 142.714844 258.898438 142.515625 261.917969 143.558594 C 264.9375 144.601562 267.375 146.757812 268.777344 149.632812 L 270.261719 152.6875 C 273.328125 158.980469 270.703125 166.601562 264.414062 169.667969 L 259.90625 171.867188 C 258.019531 172.785156 255.996094 173.25 253.957031 173.25 " fill-opacity="1" fill-rule="nonzero"/><g clip-path="url(#id3)"><path fill="#000000" d="M 164.617188 310.472656 C 163.789062 310.472656 162.957031 310.210938 162.242188 309.683594 C 160.472656 308.367188 160.105469 305.867188 161.421875 304.097656 L 171.035156 291.152344 C 172.109375 289.707031 171.808594 287.65625 170.363281 286.582031 L 116.179688 246.261719 C 115.484375 245.746094 114.625 245.523438 113.761719 245.652344 C 112.898438 245.78125 112.136719 246.234375 111.617188 246.933594 L 102 259.878906 C 100.6875 261.648438 98.191406 262.015625 96.421875 260.699219 C 94.652344 259.382812 94.285156 256.886719 95.601562 255.113281 L 105.214844 242.171875 C 107.007812 239.761719 109.628906 238.191406 112.597656 237.753906 C 115.570312 237.316406 118.53125 238.0625 120.941406 239.855469 L 175.121094 280.175781 C 180.09375 283.878906 181.132812 290.9375 177.4375 295.917969 L 167.820312 308.859375 C 167.039062 309.914062 165.835938 310.472656 164.617188 310.472656 " fill-opacity="1" fill-rule="nonzero"/></g><path fill="#000000" d="M 210.917969 89.253906 L 197.136719 89.253906 C 194.9375 89.253906 193.148438 87.464844 193.148438 85.261719 C 193.148438 83.058594 194.9375 81.269531 197.136719 81.269531 L 210.917969 81.269531 C 213.117188 81.269531 214.90625 83.058594 214.90625 85.261719 C 214.90625 87.464844 213.117188 89.253906 210.917969 89.253906 " fill-opacity="1" fill-rule="nonzero"/><path fill="#000000" d="M 253.648438 104.675781 L 153.386719 104.675781 C 151.183594 104.675781 149.398438 102.890625 149.398438 100.683594 C 149.398438 98.480469 151.183594 96.695312 153.386719 96.695312 L 253.648438 96.695312 C 255.851562 96.695312 257.636719 98.480469 257.636719 100.683594 C 257.636719 102.890625 255.851562 104.675781 253.648438 104.675781 " fill-opacity="1" fill-rule="nonzero"/><path fill="#000000" d="M 244.113281 208.597656 L 163.558594 208.597656 C 161.359375 208.597656 159.570312 206.808594 159.570312 204.605469 C 159.570312 202.398438 161.359375 200.613281 163.558594 200.613281 L 244.113281 200.613281 C 246.316406 200.613281 248.101562 202.398438 248.101562 204.605469 C 248.101562 206.808594 246.316406 208.597656 244.113281 208.597656 " fill-opacity="1" fill-rule="nonzero"/><path fill="#000000" d="M 116.644531 256.847656 C 113.644531 256.847656 111.203125 259.289062 111.203125 262.292969 C 111.203125 265.292969 113.644531 267.734375 116.644531 267.734375 C 119.640625 267.734375 122.082031 265.292969 122.082031 262.292969 C 122.082031 259.289062 119.640625 256.847656 116.644531 256.847656 " fill-opacity="1" fill-rule="nonzero"/><path fill="#000000" d="M 179.128906 137.71875 L 174.148438 137.71875 L 174.148438 123.855469 L 188.003906 123.855469 L 188.003906 128.835938 L 179.128906 128.835938 L 179.128906 137.71875 " fill-opacity="1" fill-rule="nonzero"/><path fill="#000000" d="M 232.886719 137.71875 L 227.90625 137.71875 L 227.90625 128.835938 L 219.03125 128.835938 L 219.03125 123.855469 L 232.886719 123.855469 L 232.886719 137.71875 " fill-opacity="1" fill-rule="nonzero"/><path fill="#000000" d="M 188.003906 182.644531 L 174.148438 182.644531 L 174.148438 168.777344 L 179.128906 168.777344 L 179.128906 177.664062 L 188.003906 177.664062 L 188.003906 182.644531 " fill-opacity="1" fill-rule="nonzero"/><path fill="#000000" d="M 232.886719 182.644531 L 219.03125 182.644531 L 219.03125 177.664062 L 227.90625 177.664062 L 227.90625 168.777344 L 232.886719 168.777344 L 232.886719 182.644531 " fill-opacity="1" fill-rule="nonzero"/><path fill="#000000" d="M 195.789062 145.511719 L 188.820312 145.511719 L 188.820312 138.539062 L 195.789062 138.539062 Z M 183.84375 133.558594 L 183.84375 150.5 L 200.769531 150.5 L 200.769531 133.558594 L 183.84375 133.558594 " fill-opacity="1" fill-rule="nonzero"/><path fill="#000000" d="M 218.214844 145.511719 L 211.246094 145.511719 L 211.246094 138.539062 L 218.214844 138.539062 Z M 206.265625 133.558594 L 206.265625 150.5 L 223.191406 150.5 L 223.191406 133.558594 L 206.265625 133.558594 " fill-opacity="1" fill-rule="nonzero"/><path fill="#000000" d="M 195.789062 167.960938 L 188.820312 167.960938 L 188.820312 160.984375 L 195.789062 160.984375 Z M 183.84375 156 L 183.84375 172.941406 L 200.769531 172.941406 L 200.769531 156 L 183.84375 156 " fill-opacity="1" fill-rule="nonzero"/><path fill="#000000" d="M 217.359375 167.429688 L 217.359375 173.078125 L 223 173.078125 L 223 161.785156 L 217.359375 161.785156 L 217.359375 156.136719 L 206.074219 156.136719 L 206.074219 161.785156 L 211.71875 161.785156 L 211.71875 167.429688 L 217.359375 167.429688 " fill-opacity="1" fill-rule="nonzero"/><path fill="#000000" d="M 206.074219 173.078125 L 211.71875 173.078125 L 211.71875 167.429688 L 206.074219 167.429688 L 206.074219 173.078125 " fill-opacity="1" fill-rule="nonzero"/></svg>